# xmcd
#
# Track frame offsets:
#	150
#	20099
#	35569
#	50303
#	65941
#	83257
#	100938
#	117436
#	132160
#	148858
#	167851
#	181445
#	198063
#	215360
#
# Disc length: 3108 seconds
#
# Revision: 0
# Processed by: cddbd v1.5.2PL0 Copyright (c) Steve Scherf et al.
# Submitted via: audiograbber 1.83.01
#
DISCID=c90c220e
DTITLE=Karaoke - SD155
DYEAR=2207
DGENRE=Country
TTITLE0=Keith Urban - I Told You So
TTITLE1=Carrie Underwood - I Ain't In Checotah Anymore
TTITLE2=Jack Ingram - Measure Of A Man
TTITLE3=Van Zant - That Scares Me
TTITLE4=Bon Jovi - (You Want To) Make A Memory
TTITLE5=Halfway To Hazard - Daisy
TTITLE6=Clay Walker - Fall
TTITLE7=Lee Brice - She Ain't Right
TTITLE8=Vince Gill - What You Give Away
TTITLE9=Heartland - Let's Get Dirty
TTITLE10=Chris Young - You're Gonna Love Me
TTITLE11=Megan Mullins - Cryin' Days
TTITLE12=Tracy Byrd - Better Places Than This
TTITLE13=John Mellencamp - The Americans
EXTD=
EXTT0=
EXTT1=
EXTT2=
EXTT3=
EXTT4=
EXTT5=
EXTT6=
EXTT7=
EXTT8=
EXTT9=
EXTT10=
EXTT11=
EXTT12=
EXTT13=
PLAYORDER=
